<mxfile host="app.diagrams.net" agent="Mozilla/5.0 (X11; Ubuntu; Linux x86_64; rv:140.0) Gecko/20100101 Firefox/140.0" version="28.0.6" pages="3">
  <diagram name="Page-1" id="DmHGifgb9v9BKC59KTsv">
    <mxGraphModel dx="1324" dy="917" grid="1" gridSize="10" guides="1" tooltips="1" connect="1" arrows="1" fold="1" page="1" pageScale="1" pageWidth="850" pageHeight="1100" math="0" shadow="0">
      <root>
        <mxCell id="0" />
        <mxCell id="1" parent="0" />
        <mxCell id="5z7NLdo9zD7HjVs18Z6V-2" value="BaseClass: PipelineStep" style="swimlane;whiteSpace=wrap;html=1;" vertex="1" parent="1">
          <mxGeometry x="265" y="200" width="320" height="160" as="geometry" />
        </mxCell>
        <mxCell id="5z7NLdo9zD7HjVs18Z6V-11" value="Class: Implemented PipelineStep" style="swimlane;whiteSpace=wrap;html=1;" vertex="1" parent="5z7NLdo9zD7HjVs18Z6V-2">
          <mxGeometry x="5" y="30" width="305" height="120" as="geometry" />
        </mxCell>
        <mxCell id="5z7NLdo9zD7HjVs18Z6V-12" value="&amp;nbsp; &amp;nbsp; &lt;font style=&quot;font-size: 8px;&quot;&gt;def transform(self, data: PipelineIntermediate, handler: PipelineStepHandler = PipelineStepHandler()) -&amp;gt; PipelineIntermediate:&lt;/font&gt;" style="rounded=0;whiteSpace=wrap;html=1;" vertex="1" parent="5z7NLdo9zD7HjVs18Z6V-11">
          <mxGeometry x="23" y="30" width="265" height="40" as="geometry" />
        </mxCell>
        <mxCell id="5z7NLdo9zD7HjVs18Z6V-15" value="&lt;font style=&quot;font-size: 8px;&quot;&gt;&amp;nbsp; &amp;nbsp;&lt;font&gt; def get_info() -&amp;gt; dict:&lt;/font&gt;&lt;/font&gt;&lt;br&gt;&lt;font style=&quot;font-size: 8px;&quot;&gt;&lt;font&gt;&amp;nbsp; &amp;nbsp; def get_name() -&amp;gt; str:&lt;/font&gt;&lt;/font&gt;" style="rounded=0;whiteSpace=wrap;html=1;" vertex="1" parent="5z7NLdo9zD7HjVs18Z6V-11">
          <mxGeometry x="92.5" y="80" width="120" height="34" as="geometry" />
        </mxCell>
        <mxCell id="5z7NLdo9zD7HjVs18Z6V-13" value="" style="endArrow=classic;html=1;rounded=0;entryX=0;entryY=0.5;entryDx=0;entryDy=0;" edge="1" parent="5z7NLdo9zD7HjVs18Z6V-2" target="5z7NLdo9zD7HjVs18Z6V-12">
          <mxGeometry width="50" height="50" relative="1" as="geometry">
            <mxPoint y="80" as="sourcePoint" />
            <mxPoint x="140" y="130" as="targetPoint" />
          </mxGeometry>
        </mxCell>
        <mxCell id="5z7NLdo9zD7HjVs18Z6V-5" value="" style="shape=flexArrow;endArrow=classic;html=1;rounded=0;" edge="1" parent="1">
          <mxGeometry width="50" height="50" relative="1" as="geometry">
            <mxPoint x="85" y="280" as="sourcePoint" />
            <mxPoint x="265" y="280" as="targetPoint" />
          </mxGeometry>
        </mxCell>
        <mxCell id="5z7NLdo9zD7HjVs18Z6V-7" value="Original PipelineIntermediate" style="text;html=1;align=center;verticalAlign=middle;whiteSpace=wrap;rounded=0;" vertex="1" parent="1">
          <mxGeometry x="80" y="250" width="170" height="30" as="geometry" />
        </mxCell>
        <mxCell id="5z7NLdo9zD7HjVs18Z6V-10" value="Updated PipelineIntermediate" style="text;html=1;align=center;verticalAlign=middle;whiteSpace=wrap;rounded=0;" vertex="1" parent="1">
          <mxGeometry x="585" y="250" width="180" height="30" as="geometry" />
        </mxCell>
        <mxCell id="5z7NLdo9zD7HjVs18Z6V-6" value="" style="shape=flexArrow;endArrow=classic;html=1;rounded=0;" edge="1" parent="1">
          <mxGeometry width="50" height="50" relative="1" as="geometry">
            <mxPoint x="585" y="280" as="sourcePoint" />
            <mxPoint x="780" y="280" as="targetPoint" />
          </mxGeometry>
        </mxCell>
        <mxCell id="5z7NLdo9zD7HjVs18Z6V-14" value="" style="endArrow=classic;html=1;rounded=0;exitX=1;exitY=0.5;exitDx=0;exitDy=0;entryX=0;entryY=1;entryDx=0;entryDy=0;" edge="1" parent="1" source="5z7NLdo9zD7HjVs18Z6V-12" target="5z7NLdo9zD7HjVs18Z6V-10">
          <mxGeometry width="50" height="50" relative="1" as="geometry">
            <mxPoint x="400" y="220" as="sourcePoint" />
            <mxPoint x="450" y="170" as="targetPoint" />
          </mxGeometry>
        </mxCell>
        <mxCell id="5z7NLdo9zD7HjVs18Z6V-16" value="" style="shape=flexArrow;endArrow=classic;html=1;rounded=0;" edge="1" parent="1">
          <mxGeometry width="50" height="50" relative="1" as="geometry">
            <mxPoint x="80" y="180" as="sourcePoint" />
            <mxPoint x="775" y="180" as="targetPoint" />
          </mxGeometry>
        </mxCell>
        <mxCell id="5z7NLdo9zD7HjVs18Z6V-17" value="PipelineStepHandler" style="text;html=1;align=center;verticalAlign=middle;whiteSpace=wrap;rounded=0;" vertex="1" parent="1">
          <mxGeometry x="370" y="150" width="110" height="30" as="geometry" />
        </mxCell>
        <mxCell id="5z7NLdo9zD7HjVs18Z6V-21" value="" style="endArrow=classic;html=1;rounded=0;entryX=0;entryY=0.25;entryDx=0;entryDy=0;movable=1;resizable=1;rotatable=1;deletable=1;editable=1;locked=0;connectable=1;" edge="1" parent="1" target="5z7NLdo9zD7HjVs18Z6V-12">
          <mxGeometry width="50" height="50" relative="1" as="geometry">
            <mxPoint x="240" y="190" as="sourcePoint" />
            <mxPoint x="400" y="220" as="targetPoint" />
          </mxGeometry>
        </mxCell>
        <mxCell id="5z7NLdo9zD7HjVs18Z6V-22" value="" style="endArrow=none;html=1;rounded=0;" edge="1" parent="1">
          <mxGeometry width="50" height="50" relative="1" as="geometry">
            <mxPoint x="240" y="180" as="sourcePoint" />
            <mxPoint x="240" y="190" as="targetPoint" />
          </mxGeometry>
        </mxCell>
        <mxCell id="5z7NLdo9zD7HjVs18Z6V-23" value="" style="shape=flexArrow;endArrow=classic;html=1;rounded=0;entryX=0.995;entryY=0.43;entryDx=0;entryDy=0;entryPerimeter=0;exitX=0.182;exitY=0;exitDx=0;exitDy=0;exitPerimeter=0;" edge="1" parent="1" source="5z7NLdo9zD7HjVs18Z6V-17" target="5z7NLdo9zD7HjVs18Z6V-27">
          <mxGeometry width="50" height="50" relative="1" as="geometry">
            <mxPoint x="370" y="160" as="sourcePoint" />
            <mxPoint x="330" y="110" as="targetPoint" />
            <Array as="points">
              <mxPoint x="390" y="110" />
            </Array>
          </mxGeometry>
        </mxCell>
        <mxCell id="5z7NLdo9zD7HjVs18Z6V-26" value="&lt;font style=&quot;font-size: 9px;&quot;&gt;Progress Updates&lt;/font&gt;" style="swimlane;whiteSpace=wrap;html=1;startSize=20;" vertex="1" parent="1">
          <mxGeometry x="90" y="63" width="226" height="92" as="geometry" />
        </mxCell>
        <mxCell id="5z7NLdo9zD7HjVs18Z6V-27" value="&lt;font style=&quot;font-size: 8px;&quot;&gt;&amp;nbsp; &amp;nbsp; def update_progress(self, current_iteration, total_iterations):&lt;br&gt;&amp;nbsp; &amp;nbsp; def increment_progress(self):&lt;br&gt;&amp;nbsp; &amp;nbsp; def get_status(self):&lt;br&gt;&lt;/font&gt;&lt;div&gt;&lt;font style=&quot;font-size: 8px;&quot;&gt;&amp;nbsp; &amp;nbsp; def reset(self, step_id: str):&lt;/font&gt;&lt;/div&gt;&lt;div&gt;&lt;font style=&quot;font-size: 8px;&quot;&gt;&lt;font&gt;&amp;nbsp; &amp;nbsp; def get_cache_hit_ratio(self):&lt;/font&gt;&lt;/font&gt;&lt;/div&gt;" style="text;html=1;align=center;verticalAlign=middle;resizable=0;points=[];autosize=1;strokeColor=none;fillColor=none;" vertex="1" parent="5z7NLdo9zD7HjVs18Z6V-26">
          <mxGeometry x="-10" y="8" width="240" height="90" as="geometry" />
        </mxCell>
        <mxCell id="5z7NLdo9zD7HjVs18Z6V-28" value="" style="shape=flexArrow;endArrow=classic;html=1;rounded=0;exitX=0;exitY=0.847;exitDx=0;exitDy=0;exitPerimeter=0;entryX=0.525;entryY=1.008;entryDx=0;entryDy=0;entryPerimeter=0;" edge="1" parent="1" target="5z7NLdo9zD7HjVs18Z6V-31">
          <mxGeometry width="50" height="50" relative="1" as="geometry">
            <mxPoint x="425" y="149.99999999999986" as="sourcePoint" />
            <mxPoint x="420" y="100" as="targetPoint" />
          </mxGeometry>
        </mxCell>
        <mxCell id="5z7NLdo9zD7HjVs18Z6V-29" value="&lt;font style=&quot;font-size: 9px;&quot;&gt;Caching&lt;/font&gt;" style="swimlane;whiteSpace=wrap;html=1;startSize=20;" vertex="1" parent="1">
          <mxGeometry x="350" y="45" width="150" height="50" as="geometry" />
        </mxCell>
        <mxCell id="5z7NLdo9zD7HjVs18Z6V-31" value="&lt;font style=&quot;font-size: 8px;&quot;&gt;&amp;nbsp; &amp;nbsp; def put_cache(self, key: str, value: str):&lt;br&gt;&amp;nbsp; &amp;nbsp; def get_cache(self, key: str):&lt;/font&gt;" style="text;html=1;align=center;verticalAlign=middle;resizable=0;points=[];autosize=1;strokeColor=none;fillColor=none;" vertex="1" parent="5z7NLdo9zD7HjVs18Z6V-29">
          <mxGeometry x="-14.5" y="13" width="170" height="40" as="geometry" />
        </mxCell>
        <mxCell id="5z7NLdo9zD7HjVs18Z6V-32" value="" style="shape=flexArrow;endArrow=classic;html=1;rounded=0;exitX=0.788;exitY=0.037;exitDx=0;exitDy=0;exitPerimeter=0;" edge="1" parent="1" source="5z7NLdo9zD7HjVs18Z6V-17">
          <mxGeometry width="50" height="50" relative="1" as="geometry">
            <mxPoint x="615" y="154.99999999999986" as="sourcePoint" />
            <mxPoint x="540" y="110" as="targetPoint" />
            <Array as="points">
              <mxPoint x="457" y="110" />
            </Array>
          </mxGeometry>
        </mxCell>
        <mxCell id="5z7NLdo9zD7HjVs18Z6V-33" value="&lt;font style=&quot;font-size: 9px;&quot;&gt;Logging&lt;/font&gt;" style="swimlane;whiteSpace=wrap;html=1;startSize=20;" vertex="1" parent="1">
          <mxGeometry x="543" y="80" width="150" height="53" as="geometry" />
        </mxCell>
        <mxCell id="5z7NLdo9zD7HjVs18Z6V-34" value="&lt;font style=&quot;font-size: 8px;&quot;&gt;&amp;nbsp; &amp;nbsp; def log(self, message: str):&lt;font&gt;&lt;br&gt;&amp;nbsp; &amp;nbsp; def log_cache_statistics(self):&lt;/font&gt;&lt;/font&gt;" style="text;html=1;align=center;verticalAlign=middle;resizable=0;points=[];autosize=1;strokeColor=none;fillColor=none;" vertex="1" parent="5z7NLdo9zD7HjVs18Z6V-33">
          <mxGeometry x="0.5" y="13" width="140" height="40" as="geometry" />
        </mxCell>
        <mxCell id="gC0nnTkyVDmslMct2ui1-2" value="&lt;font style=&quot;font-size: 10px;&quot;&gt;Update History &amp;amp; Metadata DataFrames&lt;/font&gt;" style="text;html=1;align=center;verticalAlign=middle;whiteSpace=wrap;rounded=0;" vertex="1" parent="1">
          <mxGeometry x="610" y="313" width="115" height="30" as="geometry" />
        </mxCell>
        <mxCell id="gC0nnTkyVDmslMct2ui1-3" value="" style="endArrow=classic;html=1;rounded=0;exitX=1;exitY=0.75;exitDx=0;exitDy=0;dashed=1;dashPattern=8 8;" edge="1" parent="1" source="5z7NLdo9zD7HjVs18Z6V-12">
          <mxGeometry width="50" height="50" relative="1" as="geometry">
            <mxPoint x="450" y="430" as="sourcePoint" />
            <mxPoint x="620" y="330" as="targetPoint" />
          </mxGeometry>
        </mxCell>
      </root>
    </mxGraphModel>
  </diagram>
  <diagram id="Ez3WJLaCsTVJMxoeb32U" name="Page-2">
    <mxGraphModel dx="1324" dy="917" grid="1" gridSize="10" guides="1" tooltips="1" connect="1" arrows="1" fold="1" page="1" pageScale="1" pageWidth="850" pageHeight="1100" math="0" shadow="0">
      <root>
        <mxCell id="0" />
        <mxCell id="1" parent="0" />
        <mxCell id="HFNREubtE6QBTp75NBmM-1" value="BaseClass: PipelineStep" style="swimlane;whiteSpace=wrap;html=1;" vertex="1" parent="1">
          <mxGeometry x="235" y="175" width="320" height="235" as="geometry" />
        </mxCell>
        <mxCell id="HFNREubtE6QBTp75NBmM-2" value="Class: RowProcessorPipelineStep" style="swimlane;whiteSpace=wrap;html=1;" vertex="1" parent="HFNREubtE6QBTp75NBmM-1">
          <mxGeometry x="5" y="30" width="305" height="200" as="geometry" />
        </mxCell>
        <mxCell id="HFNREubtE6QBTp75NBmM-3" value="Class: Implemented PipelineStep" style="swimlane;whiteSpace=wrap;html=1;" vertex="1" parent="HFNREubtE6QBTp75NBmM-2">
          <mxGeometry x="5.5" y="80" width="294.5" height="110" as="geometry" />
        </mxCell>
        <mxCell id="HFNREubtE6QBTp75NBmM-4" value="&lt;font style=&quot;font-size: 8px;&quot;&gt;&amp;nbsp; &amp;nbsp;&lt;font&gt; def get_info() -&amp;gt; dict:&lt;/font&gt;&lt;/font&gt;&lt;br&gt;&lt;font style=&quot;font-size: 8px;&quot;&gt;&lt;font&gt;&amp;nbsp; &amp;nbsp; def get_name() -&amp;gt; str:&lt;/font&gt;&lt;/font&gt;" style="rounded=0;whiteSpace=wrap;html=1;" vertex="1" parent="HFNREubtE6QBTp75NBmM-3">
          <mxGeometry x="87.25" y="65" width="120" height="34" as="geometry" />
        </mxCell>
        <mxCell id="HFNREubtE6QBTp75NBmM-5" value="&lt;font style=&quot;font-size: 8px;&quot;&gt;&amp;nbsp; &amp;nbsp; def transform_row(self, data, handler) -&amp;gt; (str, Optional[str]):&lt;/font&gt;" style="rounded=0;whiteSpace=wrap;html=1;" vertex="1" parent="HFNREubtE6QBTp75NBmM-3">
          <mxGeometry x="36" y="40" width="222.5" height="20" as="geometry" />
        </mxCell>
        <mxCell id="HFNREubtE6QBTp75NBmM-6" value="&amp;nbsp; &amp;nbsp; &lt;font style=&quot;font-size: 8px;&quot;&gt;def transform(self, data: PipelineIntermediate, handler: PipelineStepHandler = PipelineStepHandler()) -&amp;gt; PipelineIntermediate:&lt;/font&gt;" style="rounded=0;whiteSpace=wrap;html=1;" vertex="1" parent="HFNREubtE6QBTp75NBmM-2">
          <mxGeometry x="15" y="30" width="265" height="40" as="geometry" />
        </mxCell>
        <mxCell id="HFNREubtE6QBTp75NBmM-7" value="" style="endArrow=classic;html=1;rounded=0;entryX=0;entryY=0.5;entryDx=0;entryDy=0;" edge="1" parent="HFNREubtE6QBTp75NBmM-2" target="HFNREubtE6QBTp75NBmM-5">
          <mxGeometry width="50" height="50" relative="1" as="geometry">
            <mxPoint x="30" y="69" as="sourcePoint" />
            <mxPoint x="28" y="135" as="targetPoint" />
            <Array as="points">
              <mxPoint x="30" y="130" />
            </Array>
          </mxGeometry>
        </mxCell>
        <mxCell id="HFNREubtE6QBTp75NBmM-8" value="" style="endArrow=classic;html=1;rounded=0;exitX=1;exitY=0.5;exitDx=0;exitDy=0;entryX=0.959;entryY=1.008;entryDx=0;entryDy=0;entryPerimeter=0;" edge="1" parent="HFNREubtE6QBTp75NBmM-2" source="HFNREubtE6QBTp75NBmM-5" target="HFNREubtE6QBTp75NBmM-6">
          <mxGeometry width="50" height="50" relative="1" as="geometry">
            <mxPoint x="60" y="45" as="sourcePoint" />
            <mxPoint x="270" y="75" as="targetPoint" />
            <Array as="points">
              <mxPoint x="270" y="130" />
            </Array>
          </mxGeometry>
        </mxCell>
        <mxCell id="HFNREubtE6QBTp75NBmM-9" value="" style="endArrow=classic;html=1;rounded=0;entryX=0;entryY=0.5;entryDx=0;entryDy=0;" edge="1" parent="HFNREubtE6QBTp75NBmM-1" target="HFNREubtE6QBTp75NBmM-6">
          <mxGeometry width="50" height="50" relative="1" as="geometry">
            <mxPoint y="80" as="sourcePoint" />
            <mxPoint x="-55" y="135" as="targetPoint" />
          </mxGeometry>
        </mxCell>
        <mxCell id="HFNREubtE6QBTp75NBmM-10" value="" style="shape=flexArrow;endArrow=classic;html=1;rounded=0;" edge="1" parent="1">
          <mxGeometry width="50" height="50" relative="1" as="geometry">
            <mxPoint x="55" y="255" as="sourcePoint" />
            <mxPoint x="235" y="255" as="targetPoint" />
          </mxGeometry>
        </mxCell>
        <mxCell id="HFNREubtE6QBTp75NBmM-11" value="Original PipelineIntermediate" style="text;html=1;align=center;verticalAlign=middle;whiteSpace=wrap;rounded=0;" vertex="1" parent="1">
          <mxGeometry x="50" y="225" width="170" height="30" as="geometry" />
        </mxCell>
        <mxCell id="HFNREubtE6QBTp75NBmM-12" value="Updated PipelineIntermediate" style="text;html=1;align=center;verticalAlign=middle;whiteSpace=wrap;rounded=0;" vertex="1" parent="1">
          <mxGeometry x="555" y="225" width="180" height="30" as="geometry" />
        </mxCell>
        <mxCell id="HFNREubtE6QBTp75NBmM-13" value="" style="shape=flexArrow;endArrow=classic;html=1;rounded=0;" edge="1" parent="1">
          <mxGeometry width="50" height="50" relative="1" as="geometry">
            <mxPoint x="555" y="255" as="sourcePoint" />
            <mxPoint x="750" y="255" as="targetPoint" />
          </mxGeometry>
        </mxCell>
        <mxCell id="HFNREubtE6QBTp75NBmM-14" value="" style="endArrow=classic;html=1;rounded=0;entryX=0;entryY=1;entryDx=0;entryDy=0;exitX=1;exitY=0.5;exitDx=0;exitDy=0;" edge="1" parent="1" source="HFNREubtE6QBTp75NBmM-6" target="HFNREubtE6QBTp75NBmM-12">
          <mxGeometry width="50" height="50" relative="1" as="geometry">
            <mxPoint x="620" y="290" as="sourcePoint" />
            <mxPoint x="420" y="145" as="targetPoint" />
          </mxGeometry>
        </mxCell>
        <mxCell id="HFNREubtE6QBTp75NBmM-15" value="" style="shape=flexArrow;endArrow=classic;html=1;rounded=0;" edge="1" parent="1">
          <mxGeometry width="50" height="50" relative="1" as="geometry">
            <mxPoint x="50" y="155" as="sourcePoint" />
            <mxPoint x="745" y="155" as="targetPoint" />
          </mxGeometry>
        </mxCell>
        <mxCell id="HFNREubtE6QBTp75NBmM-16" value="PipelineStepHandler" style="text;html=1;align=center;verticalAlign=middle;whiteSpace=wrap;rounded=0;" vertex="1" parent="1">
          <mxGeometry x="340" y="125" width="110" height="30" as="geometry" />
        </mxCell>
        <mxCell id="HFNREubtE6QBTp75NBmM-17" value="" style="endArrow=classic;html=1;rounded=0;movable=1;resizable=1;rotatable=1;deletable=1;editable=1;locked=0;connectable=1;" edge="1" parent="1">
          <mxGeometry width="50" height="50" relative="1" as="geometry">
            <mxPoint x="210" y="165" as="sourcePoint" />
            <mxPoint x="254" y="240" as="targetPoint" />
          </mxGeometry>
        </mxCell>
        <mxCell id="HFNREubtE6QBTp75NBmM-18" value="" style="endArrow=none;html=1;rounded=0;" edge="1" parent="1">
          <mxGeometry width="50" height="50" relative="1" as="geometry">
            <mxPoint x="210" y="155" as="sourcePoint" />
            <mxPoint x="210" y="165" as="targetPoint" />
          </mxGeometry>
        </mxCell>
        <mxCell id="HFNREubtE6QBTp75NBmM-19" value="" style="shape=flexArrow;endArrow=classic;html=1;rounded=0;entryX=0.995;entryY=0.43;entryDx=0;entryDy=0;entryPerimeter=0;exitX=0.182;exitY=0;exitDx=0;exitDy=0;exitPerimeter=0;" edge="1" parent="1" source="HFNREubtE6QBTp75NBmM-16" target="HFNREubtE6QBTp75NBmM-21">
          <mxGeometry width="50" height="50" relative="1" as="geometry">
            <mxPoint x="340" y="135" as="sourcePoint" />
            <mxPoint x="300" y="85" as="targetPoint" />
            <Array as="points">
              <mxPoint x="360" y="85" />
            </Array>
          </mxGeometry>
        </mxCell>
        <mxCell id="HFNREubtE6QBTp75NBmM-20" value="&lt;font style=&quot;font-size: 9px;&quot;&gt;Progress Updates&lt;/font&gt;" style="swimlane;whiteSpace=wrap;html=1;startSize=20;" vertex="1" parent="1">
          <mxGeometry x="60" y="38" width="226" height="92" as="geometry" />
        </mxCell>
        <mxCell id="HFNREubtE6QBTp75NBmM-21" value="&lt;font style=&quot;font-size: 8px;&quot;&gt;&amp;nbsp; &amp;nbsp; def update_progress(self, current_iteration, total_iterations):&lt;br&gt;&amp;nbsp; &amp;nbsp; def increment_progress(self):&lt;br&gt;&amp;nbsp; &amp;nbsp; def get_status(self):&lt;br&gt;&lt;/font&gt;&lt;div&gt;&lt;font style=&quot;font-size: 8px;&quot;&gt;&amp;nbsp; &amp;nbsp; def reset(self, step_id: str):&lt;/font&gt;&lt;/div&gt;&lt;div&gt;&lt;font style=&quot;font-size: 8px;&quot;&gt;&lt;font&gt;&amp;nbsp; &amp;nbsp; def get_cache_hit_ratio(self):&lt;/font&gt;&lt;/font&gt;&lt;/div&gt;" style="text;html=1;align=center;verticalAlign=middle;resizable=0;points=[];autosize=1;strokeColor=none;fillColor=none;" vertex="1" parent="HFNREubtE6QBTp75NBmM-20">
          <mxGeometry x="-10" y="8" width="240" height="90" as="geometry" />
        </mxCell>
        <mxCell id="HFNREubtE6QBTp75NBmM-22" value="" style="shape=flexArrow;endArrow=classic;html=1;rounded=0;exitX=0;exitY=0.847;exitDx=0;exitDy=0;exitPerimeter=0;entryX=0.525;entryY=1.008;entryDx=0;entryDy=0;entryPerimeter=0;" edge="1" parent="1" target="HFNREubtE6QBTp75NBmM-24">
          <mxGeometry width="50" height="50" relative="1" as="geometry">
            <mxPoint x="395" y="124.99999999999989" as="sourcePoint" />
            <mxPoint x="390" y="75" as="targetPoint" />
          </mxGeometry>
        </mxCell>
        <mxCell id="HFNREubtE6QBTp75NBmM-23" value="&lt;font style=&quot;font-size: 9px;&quot;&gt;Caching&lt;/font&gt;" style="swimlane;whiteSpace=wrap;html=1;startSize=20;" vertex="1" parent="1">
          <mxGeometry x="320" y="20" width="150" height="50" as="geometry" />
        </mxCell>
        <mxCell id="HFNREubtE6QBTp75NBmM-24" value="&lt;font style=&quot;font-size: 8px;&quot;&gt;&amp;nbsp; &amp;nbsp; def put_cache(self, key: str, value: str):&lt;br&gt;&amp;nbsp; &amp;nbsp; def get_cache(self, key: str):&lt;/font&gt;" style="text;html=1;align=center;verticalAlign=middle;resizable=0;points=[];autosize=1;strokeColor=none;fillColor=none;" vertex="1" parent="HFNREubtE6QBTp75NBmM-23">
          <mxGeometry x="-14.5" y="13" width="170" height="40" as="geometry" />
        </mxCell>
        <mxCell id="HFNREubtE6QBTp75NBmM-25" value="" style="shape=flexArrow;endArrow=classic;html=1;rounded=0;exitX=0.788;exitY=0.037;exitDx=0;exitDy=0;exitPerimeter=0;" edge="1" parent="1" source="HFNREubtE6QBTp75NBmM-16">
          <mxGeometry width="50" height="50" relative="1" as="geometry">
            <mxPoint x="585" y="129.9999999999999" as="sourcePoint" />
            <mxPoint x="510" y="85" as="targetPoint" />
            <Array as="points">
              <mxPoint x="427" y="85" />
            </Array>
          </mxGeometry>
        </mxCell>
        <mxCell id="HFNREubtE6QBTp75NBmM-26" value="&lt;font style=&quot;font-size: 9px;&quot;&gt;Logging&lt;/font&gt;" style="swimlane;whiteSpace=wrap;html=1;startSize=20;" vertex="1" parent="1">
          <mxGeometry x="513" y="55" width="150" height="53" as="geometry" />
        </mxCell>
        <mxCell id="HFNREubtE6QBTp75NBmM-27" value="&lt;font style=&quot;font-size: 8px;&quot;&gt;&amp;nbsp; &amp;nbsp; def log(self, message: str):&lt;font&gt;&lt;br&gt;&amp;nbsp; &amp;nbsp; def log_cache_statistics(self):&lt;/font&gt;&lt;/font&gt;" style="text;html=1;align=center;verticalAlign=middle;resizable=0;points=[];autosize=1;strokeColor=none;fillColor=none;" vertex="1" parent="HFNREubtE6QBTp75NBmM-26">
          <mxGeometry x="0.5" y="13" width="140" height="40" as="geometry" />
        </mxCell>
        <mxCell id="HaOigrNrW4G7_llO4ld5-2" value="" style="endArrow=classic;html=1;rounded=0;exitX=1;exitY=0.75;exitDx=0;exitDy=0;dashed=1;dashPattern=8 8;" edge="1" parent="1">
          <mxGeometry width="50" height="50" relative="1" as="geometry">
            <mxPoint x="520" y="266" as="sourcePoint" />
            <mxPoint x="582" y="306" as="targetPoint" />
          </mxGeometry>
        </mxCell>
        <mxCell id="Ml7sf7aI1tFqyi9w_guh-1" value="&lt;font style=&quot;font-size: 10px;&quot;&gt;Update History &amp;amp; Metadata DataFrames&lt;/font&gt;" style="text;html=1;align=center;verticalAlign=middle;whiteSpace=wrap;rounded=0;" vertex="1" parent="1">
          <mxGeometry x="580" y="290" width="115" height="30" as="geometry" />
        </mxCell>
      </root>
    </mxGraphModel>
  </diagram>
  <diagram id="xi6T_AZy0mvJsCDYT4Km" name="Page-3">
    <mxGraphModel dx="2037" dy="1411" grid="1" gridSize="10" guides="1" tooltips="1" connect="1" arrows="1" fold="1" page="1" pageScale="1" pageWidth="850" pageHeight="1100" math="0" shadow="0">
      <root>
        <mxCell id="0" />
        <mxCell id="1" parent="0" />
        <mxCell id="Uxxn3zolAeSv6U3sPt_U-1" value="BaseClass: PipelineStep" style="swimlane;whiteSpace=wrap;html=1;" vertex="1" parent="1">
          <mxGeometry x="125" y="265" width="320" height="160" as="geometry" />
        </mxCell>
        <mxCell id="Uxxn3zolAeSv6U3sPt_U-2" value="Class: Implemented PipelineStep" style="swimlane;whiteSpace=wrap;html=1;" vertex="1" parent="Uxxn3zolAeSv6U3sPt_U-1">
          <mxGeometry x="5" y="30" width="305" height="120" as="geometry" />
        </mxCell>
        <mxCell id="Uxxn3zolAeSv6U3sPt_U-3" value="&amp;nbsp; &amp;nbsp; &lt;font style=&quot;font-size: 8px;&quot;&gt;def transform(self, data: PipelineIntermediate, handler: PipelineStepHandler = PipelineStepHandler()) -&amp;gt; PipelineIntermediate:&lt;/font&gt;" style="rounded=0;whiteSpace=wrap;html=1;" vertex="1" parent="Uxxn3zolAeSv6U3sPt_U-2">
          <mxGeometry x="23" y="30" width="265" height="40" as="geometry" />
        </mxCell>
        <mxCell id="Uxxn3zolAeSv6U3sPt_U-4" value="&lt;font style=&quot;font-size: 8px;&quot;&gt;&amp;nbsp; &amp;nbsp;&lt;font&gt; def get_info() -&amp;gt; dict:&lt;/font&gt;&lt;/font&gt;&lt;br&gt;&lt;font style=&quot;font-size: 8px;&quot;&gt;&lt;font&gt;&amp;nbsp; &amp;nbsp; def get_name() -&amp;gt; str:&lt;/font&gt;&lt;/font&gt;" style="rounded=0;whiteSpace=wrap;html=1;" vertex="1" parent="Uxxn3zolAeSv6U3sPt_U-2">
          <mxGeometry x="92.5" y="80" width="120" height="34" as="geometry" />
        </mxCell>
        <mxCell id="Uxxn3zolAeSv6U3sPt_U-5" value="" style="endArrow=classic;html=1;rounded=0;entryX=0;entryY=0.5;entryDx=0;entryDy=0;" edge="1" parent="Uxxn3zolAeSv6U3sPt_U-1" target="Uxxn3zolAeSv6U3sPt_U-3">
          <mxGeometry width="50" height="50" relative="1" as="geometry">
            <mxPoint y="80" as="sourcePoint" />
            <mxPoint x="140" y="130" as="targetPoint" />
          </mxGeometry>
        </mxCell>
        <mxCell id="Uxxn3zolAeSv6U3sPt_U-10" value="" style="endArrow=classic;html=1;rounded=0;exitX=1;exitY=0.5;exitDx=0;exitDy=0;entryX=1;entryY=0.5;entryDx=0;entryDy=0;" edge="1" parent="Uxxn3zolAeSv6U3sPt_U-1" source="Uxxn3zolAeSv6U3sPt_U-3" target="Uxxn3zolAeSv6U3sPt_U-1">
          <mxGeometry width="50" height="50" relative="1" as="geometry">
            <mxPoint x="135" y="20" as="sourcePoint" />
            <mxPoint x="185" y="-30" as="targetPoint" />
          </mxGeometry>
        </mxCell>
        <mxCell id="Uxxn3zolAeSv6U3sPt_U-6" value="" style="shape=flexArrow;endArrow=classic;html=1;rounded=0;exitX=0.607;exitY=0.016;exitDx=0;exitDy=0;exitPerimeter=0;" edge="1" parent="1" source="Pq7Z6ETRpKyoi_m2DGYc-27">
          <mxGeometry width="50" height="50" relative="1" as="geometry">
            <mxPoint x="90" y="345" as="sourcePoint" />
            <mxPoint x="125" y="345" as="targetPoint" />
          </mxGeometry>
        </mxCell>
        <mxCell id="Uxxn3zolAeSv6U3sPt_U-8" value="&lt;font style=&quot;font-size: 10px;&quot;&gt;Updated PipelineIntermediate&lt;/font&gt;" style="text;html=1;align=center;verticalAlign=middle;whiteSpace=wrap;rounded=0;rotation=-90;" vertex="1" parent="1">
          <mxGeometry x="420" y="400" width="100" height="30" as="geometry" />
        </mxCell>
        <mxCell id="Uxxn3zolAeSv6U3sPt_U-9" value="" style="shape=flexArrow;endArrow=classic;html=1;rounded=0;entryX=0;entryY=0.5;entryDx=0;entryDy=0;" edge="1" parent="1" target="Uxxn3zolAeSv6U3sPt_U-24">
          <mxGeometry width="50" height="50" relative="1" as="geometry">
            <mxPoint x="445" y="345" as="sourcePoint" />
            <mxPoint x="570" y="345" as="targetPoint" />
          </mxGeometry>
        </mxCell>
        <mxCell id="Uxxn3zolAeSv6U3sPt_U-11" value="" style="shape=flexArrow;endArrow=classic;html=1;rounded=0;exitX=0.074;exitY=0.026;exitDx=0;exitDy=0;exitPerimeter=0;" edge="1" parent="1" source="Pq7Z6ETRpKyoi_m2DGYc-27">
          <mxGeometry width="50" height="50" relative="1" as="geometry">
            <mxPoint x="80" y="245" as="sourcePoint" />
            <mxPoint x="1600" y="240" as="targetPoint" />
          </mxGeometry>
        </mxCell>
        <mxCell id="Uxxn3zolAeSv6U3sPt_U-24" value="BaseClass: PipelineStep" style="swimlane;whiteSpace=wrap;html=1;" vertex="1" parent="1">
          <mxGeometry x="494" y="265" width="320" height="160" as="geometry" />
        </mxCell>
        <mxCell id="Uxxn3zolAeSv6U3sPt_U-25" value="Class: Implemented PipelineStep" style="swimlane;whiteSpace=wrap;html=1;" vertex="1" parent="Uxxn3zolAeSv6U3sPt_U-24">
          <mxGeometry x="5" y="30" width="305" height="120" as="geometry" />
        </mxCell>
        <mxCell id="Uxxn3zolAeSv6U3sPt_U-26" value="&amp;nbsp; &amp;nbsp; &lt;font style=&quot;font-size: 8px;&quot;&gt;def transform(self, data: PipelineIntermediate, handler: PipelineStepHandler = PipelineStepHandler()) -&amp;gt; PipelineIntermediate:&lt;/font&gt;" style="rounded=0;whiteSpace=wrap;html=1;" vertex="1" parent="Uxxn3zolAeSv6U3sPt_U-25">
          <mxGeometry x="23" y="30" width="265" height="40" as="geometry" />
        </mxCell>
        <mxCell id="Uxxn3zolAeSv6U3sPt_U-27" value="&lt;font style=&quot;font-size: 8px;&quot;&gt;&amp;nbsp; &amp;nbsp;&lt;font&gt; def get_info() -&amp;gt; dict:&lt;/font&gt;&lt;/font&gt;&lt;br&gt;&lt;font style=&quot;font-size: 8px;&quot;&gt;&lt;font&gt;&amp;nbsp; &amp;nbsp; def get_name() -&amp;gt; str:&lt;/font&gt;&lt;/font&gt;" style="rounded=0;whiteSpace=wrap;html=1;" vertex="1" parent="Uxxn3zolAeSv6U3sPt_U-25">
          <mxGeometry x="92.5" y="80" width="120" height="34" as="geometry" />
        </mxCell>
        <mxCell id="Uxxn3zolAeSv6U3sPt_U-28" value="" style="endArrow=classic;html=1;rounded=0;entryX=0;entryY=0.5;entryDx=0;entryDy=0;" edge="1" parent="Uxxn3zolAeSv6U3sPt_U-24" target="Uxxn3zolAeSv6U3sPt_U-26">
          <mxGeometry width="50" height="50" relative="1" as="geometry">
            <mxPoint y="80" as="sourcePoint" />
            <mxPoint x="140" y="130" as="targetPoint" />
          </mxGeometry>
        </mxCell>
        <mxCell id="Uxxn3zolAeSv6U3sPt_U-33" value="" style="endArrow=classic;html=1;rounded=0;exitX=1;exitY=0.5;exitDx=0;exitDy=0;entryX=0;entryY=1;entryDx=0;entryDy=0;" edge="1" parent="1" source="Uxxn3zolAeSv6U3sPt_U-26">
          <mxGeometry width="50" height="50" relative="1" as="geometry">
            <mxPoint x="629" y="285" as="sourcePoint" />
            <mxPoint x="814" y="345" as="targetPoint" />
          </mxGeometry>
        </mxCell>
        <mxCell id="Uxxn3zolAeSv6U3sPt_U-35" value="PipelineStepHandler" style="text;html=1;align=center;verticalAlign=middle;whiteSpace=wrap;rounded=0;" vertex="1" parent="1">
          <mxGeometry x="774" y="215" width="110" height="30" as="geometry" />
        </mxCell>
        <mxCell id="Uxxn3zolAeSv6U3sPt_U-38" value="" style="shape=flexArrow;endArrow=classic;html=1;rounded=0;entryX=0.995;entryY=0.43;entryDx=0;entryDy=0;entryPerimeter=0;exitX=0.182;exitY=0;exitDx=0;exitDy=0;exitPerimeter=0;" edge="1" parent="1" source="Uxxn3zolAeSv6U3sPt_U-35" target="Uxxn3zolAeSv6U3sPt_U-40">
          <mxGeometry width="50" height="50" relative="1" as="geometry">
            <mxPoint x="774" y="225" as="sourcePoint" />
            <mxPoint x="734" y="175" as="targetPoint" />
            <Array as="points">
              <mxPoint x="794" y="175" />
            </Array>
          </mxGeometry>
        </mxCell>
        <mxCell id="Uxxn3zolAeSv6U3sPt_U-39" value="&lt;font style=&quot;font-size: 9px;&quot;&gt;Progress Updates&lt;/font&gt;" style="swimlane;whiteSpace=wrap;html=1;startSize=20;" vertex="1" parent="1">
          <mxGeometry x="494" y="128" width="226" height="92" as="geometry" />
        </mxCell>
        <mxCell id="Uxxn3zolAeSv6U3sPt_U-40" value="&lt;font style=&quot;font-size: 8px;&quot;&gt;&amp;nbsp; &amp;nbsp; def update_progress(self, current_iteration, total_iterations):&lt;br&gt;&amp;nbsp; &amp;nbsp; def increment_progress(self):&lt;br&gt;&amp;nbsp; &amp;nbsp; def get_status(self):&lt;br&gt;&lt;/font&gt;&lt;div&gt;&lt;font style=&quot;font-size: 8px;&quot;&gt;&amp;nbsp; &amp;nbsp; def reset(self, step_id: str):&lt;/font&gt;&lt;/div&gt;&lt;div&gt;&lt;font style=&quot;font-size: 8px;&quot;&gt;&lt;font&gt;&amp;nbsp; &amp;nbsp; def get_cache_hit_ratio(self):&lt;/font&gt;&lt;/font&gt;&lt;/div&gt;" style="text;html=1;align=center;verticalAlign=middle;resizable=0;points=[];autosize=1;strokeColor=none;fillColor=none;" vertex="1" parent="Uxxn3zolAeSv6U3sPt_U-39">
          <mxGeometry x="-10" y="8" width="240" height="90" as="geometry" />
        </mxCell>
        <mxCell id="Uxxn3zolAeSv6U3sPt_U-41" value="" style="shape=flexArrow;endArrow=classic;html=1;rounded=0;exitX=0;exitY=0.847;exitDx=0;exitDy=0;exitPerimeter=0;entryX=0.525;entryY=1.008;entryDx=0;entryDy=0;entryPerimeter=0;" edge="1" parent="1" target="Uxxn3zolAeSv6U3sPt_U-43">
          <mxGeometry width="50" height="50" relative="1" as="geometry">
            <mxPoint x="829" y="214.9999999999999" as="sourcePoint" />
            <mxPoint x="824" y="165" as="targetPoint" />
          </mxGeometry>
        </mxCell>
        <mxCell id="Uxxn3zolAeSv6U3sPt_U-42" value="&lt;font style=&quot;font-size: 9px;&quot;&gt;Caching&lt;/font&gt;" style="swimlane;whiteSpace=wrap;html=1;startSize=20;" vertex="1" parent="1">
          <mxGeometry x="754" y="110" width="150" height="50" as="geometry" />
        </mxCell>
        <mxCell id="Uxxn3zolAeSv6U3sPt_U-43" value="&lt;font style=&quot;font-size: 8px;&quot;&gt;&amp;nbsp; &amp;nbsp; def put_cache(self, key: str, value: str):&lt;br&gt;&amp;nbsp; &amp;nbsp; def get_cache(self, key: str):&lt;/font&gt;" style="text;html=1;align=center;verticalAlign=middle;resizable=0;points=[];autosize=1;strokeColor=none;fillColor=none;" vertex="1" parent="Uxxn3zolAeSv6U3sPt_U-42">
          <mxGeometry x="-14.5" y="13" width="170" height="40" as="geometry" />
        </mxCell>
        <mxCell id="Uxxn3zolAeSv6U3sPt_U-44" value="" style="shape=flexArrow;endArrow=classic;html=1;rounded=0;exitX=0.788;exitY=0.037;exitDx=0;exitDy=0;exitPerimeter=0;" edge="1" parent="1" source="Uxxn3zolAeSv6U3sPt_U-35">
          <mxGeometry width="50" height="50" relative="1" as="geometry">
            <mxPoint x="1019" y="219.9999999999999" as="sourcePoint" />
            <mxPoint x="944" y="175" as="targetPoint" />
            <Array as="points">
              <mxPoint x="861" y="175" />
            </Array>
          </mxGeometry>
        </mxCell>
        <mxCell id="Uxxn3zolAeSv6U3sPt_U-45" value="&lt;font style=&quot;font-size: 9px;&quot;&gt;Logging&lt;/font&gt;" style="swimlane;whiteSpace=wrap;html=1;startSize=20;" vertex="1" parent="1">
          <mxGeometry x="947" y="145" width="150" height="53" as="geometry" />
        </mxCell>
        <mxCell id="Uxxn3zolAeSv6U3sPt_U-46" value="&lt;font style=&quot;font-size: 8px;&quot;&gt;&amp;nbsp; &amp;nbsp; def log(self, message: str):&lt;font&gt;&lt;br&gt;&amp;nbsp; &amp;nbsp; def log_cache_statistics(self):&lt;/font&gt;&lt;/font&gt;" style="text;html=1;align=center;verticalAlign=middle;resizable=0;points=[];autosize=1;strokeColor=none;fillColor=none;" vertex="1" parent="Uxxn3zolAeSv6U3sPt_U-45">
          <mxGeometry x="0.5" y="13" width="140" height="40" as="geometry" />
        </mxCell>
        <mxCell id="W2Z7b4TMziokNx7Q4j3V-1" value="BaseClass: PipelineStep" style="swimlane;whiteSpace=wrap;html=1;" vertex="1" parent="1">
          <mxGeometry x="860" y="265" width="320" height="235" as="geometry" />
        </mxCell>
        <mxCell id="W2Z7b4TMziokNx7Q4j3V-2" value="Class: RowProcessorPipelineStep" style="swimlane;whiteSpace=wrap;html=1;" vertex="1" parent="W2Z7b4TMziokNx7Q4j3V-1">
          <mxGeometry x="5" y="30" width="305" height="200" as="geometry" />
        </mxCell>
        <mxCell id="RdHzue50vHNWUc9-YDw0-54" value="" style="endArrow=classic;html=1;rounded=0;entryX=-0.003;entryY=0.128;entryDx=0;entryDy=0;entryPerimeter=0;" edge="1" parent="W2Z7b4TMziokNx7Q4j3V-2" target="W2Z7b4TMziokNx7Q4j3V-6">
          <mxGeometry width="50" height="50" relative="1" as="geometry">
            <mxPoint x="-11" y="-47" as="sourcePoint" />
            <mxPoint x="15" y="41" as="targetPoint" />
            <Array as="points">
              <mxPoint x="-11" y="35" />
            </Array>
          </mxGeometry>
        </mxCell>
        <mxCell id="W2Z7b4TMziokNx7Q4j3V-3" value="Class: Implemented PipelineStep" style="swimlane;whiteSpace=wrap;html=1;" vertex="1" parent="W2Z7b4TMziokNx7Q4j3V-2">
          <mxGeometry x="5.5" y="80" width="294.5" height="110" as="geometry" />
        </mxCell>
        <mxCell id="W2Z7b4TMziokNx7Q4j3V-4" value="&lt;font style=&quot;font-size: 8px;&quot;&gt;&amp;nbsp; &amp;nbsp;&lt;font&gt; def get_info() -&amp;gt; dict:&lt;/font&gt;&lt;/font&gt;&lt;br&gt;&lt;font style=&quot;font-size: 8px;&quot;&gt;&lt;font&gt;&amp;nbsp; &amp;nbsp; def get_name() -&amp;gt; str:&lt;/font&gt;&lt;/font&gt;" style="rounded=0;whiteSpace=wrap;html=1;" vertex="1" parent="W2Z7b4TMziokNx7Q4j3V-3">
          <mxGeometry x="87.25" y="65" width="120" height="34" as="geometry" />
        </mxCell>
        <mxCell id="W2Z7b4TMziokNx7Q4j3V-5" value="&lt;font style=&quot;font-size: 8px;&quot;&gt;&amp;nbsp; &amp;nbsp; def transform_row(self, data, handler) -&amp;gt; (str, Optional[str]):&lt;/font&gt;" style="rounded=0;whiteSpace=wrap;html=1;" vertex="1" parent="W2Z7b4TMziokNx7Q4j3V-3">
          <mxGeometry x="36" y="40" width="222.5" height="20" as="geometry" />
        </mxCell>
        <mxCell id="W2Z7b4TMziokNx7Q4j3V-6" value="&amp;nbsp; &amp;nbsp; &lt;font style=&quot;font-size: 8px;&quot;&gt;def transform(self, data: PipelineIntermediate, handler: PipelineStepHandler = PipelineStepHandler()) -&amp;gt; PipelineIntermediate:&lt;/font&gt;" style="rounded=0;whiteSpace=wrap;html=1;" vertex="1" parent="W2Z7b4TMziokNx7Q4j3V-2">
          <mxGeometry x="15" y="30" width="265" height="40" as="geometry" />
        </mxCell>
        <mxCell id="W2Z7b4TMziokNx7Q4j3V-7" value="" style="endArrow=classic;html=1;rounded=0;entryX=0;entryY=0.5;entryDx=0;entryDy=0;" edge="1" parent="W2Z7b4TMziokNx7Q4j3V-2" target="W2Z7b4TMziokNx7Q4j3V-5">
          <mxGeometry width="50" height="50" relative="1" as="geometry">
            <mxPoint x="30" y="69" as="sourcePoint" />
            <mxPoint x="28" y="135" as="targetPoint" />
            <Array as="points">
              <mxPoint x="30" y="130" />
            </Array>
          </mxGeometry>
        </mxCell>
        <mxCell id="W2Z7b4TMziokNx7Q4j3V-8" value="" style="endArrow=classic;html=1;rounded=0;exitX=1;exitY=0.5;exitDx=0;exitDy=0;entryX=0.959;entryY=1.008;entryDx=0;entryDy=0;entryPerimeter=0;" edge="1" parent="W2Z7b4TMziokNx7Q4j3V-2" source="W2Z7b4TMziokNx7Q4j3V-5" target="W2Z7b4TMziokNx7Q4j3V-6">
          <mxGeometry width="50" height="50" relative="1" as="geometry">
            <mxPoint x="60" y="45" as="sourcePoint" />
            <mxPoint x="270" y="75" as="targetPoint" />
            <Array as="points">
              <mxPoint x="270" y="130" />
            </Array>
          </mxGeometry>
        </mxCell>
        <mxCell id="W2Z7b4TMziokNx7Q4j3V-9" value="" style="endArrow=classic;html=1;rounded=0;entryX=0;entryY=0.5;entryDx=0;entryDy=0;" edge="1" parent="W2Z7b4TMziokNx7Q4j3V-1" target="W2Z7b4TMziokNx7Q4j3V-6">
          <mxGeometry width="50" height="50" relative="1" as="geometry">
            <mxPoint y="80" as="sourcePoint" />
            <mxPoint x="-55" y="135" as="targetPoint" />
          </mxGeometry>
        </mxCell>
        <mxCell id="W2Z7b4TMziokNx7Q4j3V-14" value="" style="endArrow=classic;html=1;rounded=0;exitX=1;exitY=0.5;exitDx=0;exitDy=0;" edge="1" parent="1" source="W2Z7b4TMziokNx7Q4j3V-6">
          <mxGeometry width="50" height="50" relative="1" as="geometry">
            <mxPoint x="1300" y="465" as="sourcePoint" />
            <mxPoint x="1180" y="345" as="targetPoint" />
          </mxGeometry>
        </mxCell>
        <mxCell id="RdHzue50vHNWUc9-YDw0-50" value="" style="endArrow=classic;html=1;rounded=0;entryX=-0.001;entryY=0.218;entryDx=0;entryDy=0;entryPerimeter=0;" edge="1" parent="1" target="Uxxn3zolAeSv6U3sPt_U-3">
          <mxGeometry width="50" height="50" relative="1" as="geometry">
            <mxPoint x="120" y="249" as="sourcePoint" />
            <mxPoint x="110" y="265" as="targetPoint" />
            <Array as="points">
              <mxPoint x="120" y="334" />
            </Array>
          </mxGeometry>
        </mxCell>
        <mxCell id="RdHzue50vHNWUc9-YDw0-51" value="" style="endArrow=classic;html=1;rounded=0;entryX=-0.002;entryY=0.218;entryDx=0;entryDy=0;entryPerimeter=0;" edge="1" parent="1" target="Uxxn3zolAeSv6U3sPt_U-26">
          <mxGeometry width="50" height="50" relative="1" as="geometry">
            <mxPoint x="490" y="248" as="sourcePoint" />
            <mxPoint x="521" y="334" as="targetPoint" />
            <Array as="points">
              <mxPoint x="490" y="334" />
            </Array>
          </mxGeometry>
        </mxCell>
        <mxCell id="RdHzue50vHNWUc9-YDw0-52" value="&lt;font style=&quot;font-size: 10px;&quot;&gt;Updated PipelineIntermediate&lt;/font&gt;" style="text;html=1;align=center;verticalAlign=middle;whiteSpace=wrap;rounded=0;rotation=-90;" vertex="1" parent="1">
          <mxGeometry x="779" y="400" width="115" height="30" as="geometry" />
        </mxCell>
        <mxCell id="RdHzue50vHNWUc9-YDw0-53" value="" style="shape=flexArrow;endArrow=classic;html=1;rounded=0;" edge="1" parent="1">
          <mxGeometry width="50" height="50" relative="1" as="geometry">
            <mxPoint x="814" y="345" as="sourcePoint" />
            <mxPoint x="860" y="345" as="targetPoint" />
          </mxGeometry>
        </mxCell>
        <mxCell id="RdHzue50vHNWUc9-YDw0-55" value="&lt;font style=&quot;font-size: 10px;&quot;&gt;Updated PipelineIntermediate&lt;/font&gt;" style="text;html=1;align=center;verticalAlign=middle;whiteSpace=wrap;rounded=0;rotation=-90;" vertex="1" parent="1">
          <mxGeometry x="1140" y="399.99999999999994" width="115" height="30" as="geometry" />
        </mxCell>
        <mxCell id="RdHzue50vHNWUc9-YDw0-56" value="" style="shape=flexArrow;endArrow=classic;html=1;rounded=0;entryX=0;entryY=0.5;entryDx=0;entryDy=0;" edge="1" parent="1" target="Pq7Z6ETRpKyoi_m2DGYc-1">
          <mxGeometry width="50" height="50" relative="1" as="geometry">
            <mxPoint x="1180" y="344.59999999999997" as="sourcePoint" />
            <mxPoint x="1300" y="345" as="targetPoint" />
          </mxGeometry>
        </mxCell>
        <mxCell id="Pq7Z6ETRpKyoi_m2DGYc-1" value="BaseClass: PipelineStep" style="swimlane;whiteSpace=wrap;html=1;" vertex="1" parent="1">
          <mxGeometry x="1220" y="265" width="320" height="160" as="geometry" />
        </mxCell>
        <mxCell id="Pq7Z6ETRpKyoi_m2DGYc-2" value="Class: Implemented PipelineStep" style="swimlane;whiteSpace=wrap;html=1;" vertex="1" parent="Pq7Z6ETRpKyoi_m2DGYc-1">
          <mxGeometry x="5" y="30" width="305" height="120" as="geometry" />
        </mxCell>
        <mxCell id="Pq7Z6ETRpKyoi_m2DGYc-3" value="&amp;nbsp; &amp;nbsp; &lt;font style=&quot;font-size: 8px;&quot;&gt;def transform(self, data: PipelineIntermediate, handler: PipelineStepHandler = PipelineStepHandler()) -&amp;gt; PipelineIntermediate:&lt;/font&gt;" style="rounded=0;whiteSpace=wrap;html=1;" vertex="1" parent="Pq7Z6ETRpKyoi_m2DGYc-2">
          <mxGeometry x="23" y="30" width="265" height="40" as="geometry" />
        </mxCell>
        <mxCell id="Pq7Z6ETRpKyoi_m2DGYc-4" value="&lt;font style=&quot;font-size: 8px;&quot;&gt;&amp;nbsp; &amp;nbsp;&lt;font&gt; def get_info() -&amp;gt; dict:&lt;/font&gt;&lt;/font&gt;&lt;br&gt;&lt;font style=&quot;font-size: 8px;&quot;&gt;&lt;font&gt;&amp;nbsp; &amp;nbsp; def get_name() -&amp;gt; str:&lt;/font&gt;&lt;/font&gt;" style="rounded=0;whiteSpace=wrap;html=1;" vertex="1" parent="Pq7Z6ETRpKyoi_m2DGYc-2">
          <mxGeometry x="92.5" y="80" width="120" height="34" as="geometry" />
        </mxCell>
        <mxCell id="Pq7Z6ETRpKyoi_m2DGYc-26" value="" style="endArrow=classic;html=1;rounded=0;entryX=-0.002;entryY=0.218;entryDx=0;entryDy=0;entryPerimeter=0;" edge="1" parent="Pq7Z6ETRpKyoi_m2DGYc-2">
          <mxGeometry width="50" height="50" relative="1" as="geometry">
            <mxPoint x="-8" y="-50" as="sourcePoint" />
            <mxPoint x="23" y="36" as="targetPoint" />
            <Array as="points">
              <mxPoint x="-8" y="36" />
            </Array>
          </mxGeometry>
        </mxCell>
        <mxCell id="Pq7Z6ETRpKyoi_m2DGYc-5" value="" style="endArrow=classic;html=1;rounded=0;entryX=0;entryY=0.5;entryDx=0;entryDy=0;" edge="1" parent="Pq7Z6ETRpKyoi_m2DGYc-1" target="Pq7Z6ETRpKyoi_m2DGYc-3">
          <mxGeometry width="50" height="50" relative="1" as="geometry">
            <mxPoint y="80" as="sourcePoint" />
            <mxPoint x="140" y="130" as="targetPoint" />
          </mxGeometry>
        </mxCell>
        <mxCell id="Pq7Z6ETRpKyoi_m2DGYc-10" value="" style="endArrow=classic;html=1;rounded=0;exitX=1;exitY=0.5;exitDx=0;exitDy=0;entryX=0;entryY=1;entryDx=0;entryDy=0;" edge="1" parent="1" source="Pq7Z6ETRpKyoi_m2DGYc-3">
          <mxGeometry width="50" height="50" relative="1" as="geometry">
            <mxPoint x="1355" y="285" as="sourcePoint" />
            <mxPoint x="1540" y="345" as="targetPoint" />
          </mxGeometry>
        </mxCell>
        <mxCell id="Pq7Z6ETRpKyoi_m2DGYc-24" value="&lt;font style=&quot;font-size: 10px;&quot;&gt;Final PipelineIntermediate&lt;/font&gt;" style="text;html=1;align=center;verticalAlign=middle;whiteSpace=wrap;rounded=0;rotation=-90;" vertex="1" parent="1">
          <mxGeometry x="1530" y="330" width="125" height="30" as="geometry" />
        </mxCell>
        <mxCell id="Pq7Z6ETRpKyoi_m2DGYc-25" value="" style="shape=flexArrow;endArrow=classic;html=1;rounded=0;" edge="1" parent="1">
          <mxGeometry width="50" height="50" relative="1" as="geometry">
            <mxPoint x="1540" y="345" as="sourcePoint" />
            <mxPoint x="1580" y="345" as="targetPoint" />
          </mxGeometry>
        </mxCell>
        <mxCell id="Pq7Z6ETRpKyoi_m2DGYc-27" value="" style="rounded=0;whiteSpace=wrap;html=1;direction=south;" vertex="1" parent="1">
          <mxGeometry x="20" y="230" width="60" height="190" as="geometry" />
        </mxCell>
        <mxCell id="61I62VP3XEAwX73WcN6t-9" value="&lt;span&gt;Initial PipelineIntermediate &amp;amp; PipelineStepHandler&lt;/span&gt;" style="text;html=1;align=center;verticalAlign=middle;whiteSpace=wrap;rounded=0;rotation=-90;" vertex="1" parent="1">
          <mxGeometry x="-25" y="310" width="150" height="30" as="geometry" />
        </mxCell>
        <mxCell id="sdSN0Sax05f_6qNmAFf4-3" value="" style="endArrow=classic;html=1;rounded=0;dashed=1;dashPattern=8 8;entryX=0.5;entryY=0;entryDx=0;entryDy=0;exitX=0.886;exitY=1.008;exitDx=0;exitDy=0;exitPerimeter=0;" edge="1" parent="1" source="Uxxn3zolAeSv6U3sPt_U-3" target="sdSN0Sax05f_6qNmAFf4-4">
          <mxGeometry width="50" height="50" relative="1" as="geometry">
            <mxPoint x="390" y="370" as="sourcePoint" />
            <mxPoint x="332" y="460" as="targetPoint" />
          </mxGeometry>
        </mxCell>
        <mxCell id="sdSN0Sax05f_6qNmAFf4-4" value="&lt;font style=&quot;font-size: 10px;&quot;&gt;Update History &amp;amp; Metadata DataFrames&lt;/font&gt;" style="text;html=1;align=center;verticalAlign=middle;whiteSpace=wrap;rounded=0;" vertex="1" parent="1">
          <mxGeometry x="330" y="444" width="115" height="30" as="geometry" />
        </mxCell>
        <mxCell id="sdSN0Sax05f_6qNmAFf4-7" value="" style="endArrow=classic;html=1;rounded=0;dashed=1;dashPattern=8 8;entryX=0.5;entryY=0;entryDx=0;entryDy=0;exitX=0.844;exitY=1.005;exitDx=0;exitDy=0;exitPerimeter=0;" edge="1" parent="1" target="sdSN0Sax05f_6qNmAFf4-8" source="Uxxn3zolAeSv6U3sPt_U-26">
          <mxGeometry width="50" height="50" relative="1" as="geometry">
            <mxPoint x="749" y="365" as="sourcePoint" />
            <mxPoint x="692" y="460" as="targetPoint" />
          </mxGeometry>
        </mxCell>
        <mxCell id="sdSN0Sax05f_6qNmAFf4-8" value="&lt;font style=&quot;font-size: 10px;&quot;&gt;Update History &amp;amp; Metadata DataFrames&lt;/font&gt;" style="text;html=1;align=center;verticalAlign=middle;whiteSpace=wrap;rounded=0;" vertex="1" parent="1">
          <mxGeometry x="690" y="444" width="115" height="30" as="geometry" />
        </mxCell>
        <mxCell id="sdSN0Sax05f_6qNmAFf4-9" value="" style="endArrow=classic;html=1;rounded=0;dashed=1;dashPattern=8 8;entryX=0.5;entryY=0;entryDx=0;entryDy=0;exitX=0.886;exitY=1.008;exitDx=0;exitDy=0;exitPerimeter=0;" edge="1" parent="1" target="sdSN0Sax05f_6qNmAFf4-10">
          <mxGeometry width="50" height="50" relative="1" as="geometry">
            <mxPoint x="1488" y="365" as="sourcePoint" />
            <mxPoint x="1432" y="460" as="targetPoint" />
          </mxGeometry>
        </mxCell>
        <mxCell id="sdSN0Sax05f_6qNmAFf4-10" value="&lt;font style=&quot;font-size: 10px;&quot;&gt;Update History &amp;amp; Metadata DataFrames&lt;/font&gt;" style="text;html=1;align=center;verticalAlign=middle;whiteSpace=wrap;rounded=0;" vertex="1" parent="1">
          <mxGeometry x="1430" y="444" width="115" height="30" as="geometry" />
        </mxCell>
        <mxCell id="sdSN0Sax05f_6qNmAFf4-11" value="" style="endArrow=classic;html=1;rounded=0;dashed=1;dashPattern=8 8;entryX=0.5;entryY=0;entryDx=0;entryDy=0;exitX=1;exitY=1;exitDx=0;exitDy=0;" edge="1" parent="1" target="sdSN0Sax05f_6qNmAFf4-12" source="W2Z7b4TMziokNx7Q4j3V-6">
          <mxGeometry width="50" height="50" relative="1" as="geometry">
            <mxPoint x="1168" y="540" as="sourcePoint" />
            <mxPoint x="1112" y="635" as="targetPoint" />
            <Array as="points">
              <mxPoint x="1145" y="470" />
              <mxPoint x="1238" y="470" />
            </Array>
          </mxGeometry>
        </mxCell>
        <mxCell id="sdSN0Sax05f_6qNmAFf4-12" value="&lt;font style=&quot;font-size: 10px;&quot;&gt;Update History &amp;amp; Metadata DataFrames&lt;/font&gt;" style="text;html=1;align=center;verticalAlign=middle;whiteSpace=wrap;rounded=0;" vertex="1" parent="1">
          <mxGeometry x="1180" y="490" width="115" height="30" as="geometry" />
        </mxCell>
      </root>
    </mxGraphModel>
  </diagram>
</mxfile>
